<mxfile host="app.diagrams.net" modified="2023-06-21T21:33:51.434Z" agent="Mozilla/5.0 (X11; Linux x86_64; rv:109.0) Gecko/20100101 Firefox/114.0" etag="B_0HQ4i6xyfOPxgY1-LO" version="21.5.0" type="device" pages="3">
  <diagram name="Before" id="p1rYnj5G5RQ0UlcBhpoQ">
    <mxGraphModel dx="1359" dy="756" grid="1" gridSize="10" guides="1" tooltips="1" connect="1" arrows="1" fold="1" page="1" pageScale="1" pageWidth="827" pageHeight="1169" math="0" shadow="0">
      <root>
        <mxCell id="0" />
        <mxCell id="1" parent="0" />
        <mxCell id="NexLqIIf15mePnMMeNDO-1" value="&lt;b&gt;1Password SSH Agent&lt;br&gt;&lt;/b&gt;" style="rounded=1;whiteSpace=wrap;html=1;fillColor=#dae8fc;strokeColor=#6c8ebf;" parent="1" vertex="1">
          <mxGeometry x="240" y="280" width="320" height="40" as="geometry" />
        </mxCell>
        <mxCell id="NexLqIIf15mePnMMeNDO-3" value="" style="shape=image;verticalLabelPosition=bottom;labelBackgroundColor=default;verticalAlign=top;aspect=fixed;imageAspect=0;image=data:image/svg+xml,PHN2ZyB4bWxucz0iaHR0cDovL3d3dy53My5vcmcvMjAwMC9zdmciIHdpZHRoPSIzMiIgdmlld0JveD0iMCAwIDMyIDMyIiBoZWlnaHQ9IjMyIj48ZyB0cmFuc2Zvcm09InRyYW5zbGF0ZSgxIDEpIiBmaWxsPSJub25lIj48cGF0aCBvcGFjaXR5PSIuNTAyMjU1IiBmaWxsPSIjMDAwIiBkPSJtMTUgMGMtOC4yODQ5MzkyNyAwLTE1IDYuNzE1MDYwNzMtMTUgMTUgMCA4LjI4NDkzOTMgNi43MTUwNjA3MyAxNSAxNSAxNSA4LjI4NDkzOTMgMCAxNS02LjcxNTA2MDcgMTUtMTUgMC04LjI4NDkzOTI3LTYuNzE1MDYwNy0xNS0xNS0xNXptMCAxYzcuNzMyNjY2NyAwIDE0IDYuMjY3MzMzMzMgMTQgMTQgMCA3LjczMjY2NjctNi4yNjczMzMzIDE0LTE0IDE0LTcuNzMyNjY2NjcgMC0xNC02LjI2NzMzMzMtMTQtMTQgMC03LjczMjY2NjY3IDYuMjY3MzMzMzMtMTQgMTQtMTR6Ii8+PHBhdGggZmlsbD0iI2ZmZiIgZD0ibTE1IDFjNy43MzI2NjY3IDAgMTQgNi4yNjczMzMzMyAxNCAxNCAwIDcuNzMyNjY2Ny02LjI2NzMzMzMgMTQtMTQgMTQtNy43MzI2NjY2NyAwLTE0LTYuMjY3MzMzMy0xNC0xNCAwLTcuNzMyNjY2NjcgNi4yNjczMzMzMy0xNCAxNC0xNHoiLz48cGF0aCBmaWxsPSIjMGEyZDRkIiBkPSJtMTMgOS41MDE0NjQ2NmMwLS4yNzY5NTEyOC4yMTUwNTc0LS41MDE0NjQ2Ni40OTA0Nzg1LS41MDE0NjQ2NmgzLjAxOTA0M2MuMjcwODgzOCAwIC40OTA0Nzg1LjIxOTU5MzgxLjQ5MDQ3ODUuNDk2MDcyN3Y1LjYwNzg1NDZjMCAuMjczOTczNC0uMTY1MTI5Ny42NDQ2ODk0LS4zNzIzNjMxLjgzMTE5OTVsLS4yNTUyNzM4LjIyOTc0NjRjLS4yMDU2NTA1LjE4NTA4NTQtLjIxNjExMzEuNDkxMzc2OC0uMDIyNjExNi42ODQ4NzgzbC4zMDA0OTcuMzAwNDk3Yy4xOTMxNjI0LjE5MzE2MjQuMzQ5NzUxNS41NzkzOTYzLjM0OTc1MTUuODUxMjE2MnYyLjQ5NzA3MDZjMCAuMjc2OTUxMy0uMjE1MDU3NC41MDE0NjQ3LS40OTA0Nzg1LjUwMTQ2NDdoLTMuMDE5MDQzYy0uMjcwODgzOCAwLS40OTA0Nzg1LS4yMTYyNjY2LS40OTA0Nzg1LS40OTkyNTEydi01LjUwMTQ5NzZjMC0uMjc1NzI4OC4xNTYyNS0uNjU1NTAxMi4zNDk3NTE1LS44NDkwMDI3bC4zMDA0OTctLjMwMDQ5N2MuMTkzMTYyNC0uMTkzMTYyNC4xOTM1MDE1LS41MDYwMDE1IDAtLjY5OTUwM2wtLjMwMDQ5Ny0uMzAwNDk3Yy0uMTkzMTYyNC0uMTkzMTYyNC0uMzQ5NzUxNS0uNTc5Mzk2My0uMzQ5NzUxNS0uODUxMjE2MnoiLz48cGF0aCBmaWxsPSIjMTk4Y2ZmIiBkPSJtMTUgNGM2LjA3NTY2NjcgMCAxMSA0LjkyNDMzMzMzIDExIDExIDAgNi4wNzU2NjY3LTQuOTI0MzMzMyAxMS0xMSAxMS02LjA3NTY2NjY3IDAtMTEtNC45MjQzMzMzLTExLTExIDAtNi4wNzU2NjY2NyA0LjkyNDMzMzMzLTExIDExLTExem0wIDNjLTQuNDE4NjY2NyAwLTggMy41ODEzMzMzLTggOHMzLjU4MTMzMzMgOCA4IDggOC0zLjU4MTMzMzMgOC04LTMuNTgxMzMzMy04LTgtOHoiLz48L2c+PC9zdmc+;" parent="1" vertex="1">
          <mxGeometry x="365" y="140" width="70" height="70" as="geometry" />
        </mxCell>
        <mxCell id="NexLqIIf15mePnMMeNDO-6" value="" style="shape=flexArrow;endArrow=classic;startArrow=classic;html=1;rounded=0;fillColor=#d5e8d4;strokeColor=#82b366;gradientColor=#97d077;" parent="1" source="NexLqIIf15mePnMMeNDO-1" target="NexLqIIf15mePnMMeNDO-3" edge="1">
          <mxGeometry width="100" height="100" relative="1" as="geometry">
            <mxPoint x="330" y="300" as="sourcePoint" />
            <mxPoint x="430" y="200" as="targetPoint" />
          </mxGeometry>
        </mxCell>
        <mxCell id="NexLqIIf15mePnMMeNDO-8" value="" style="endArrow=classic;html=1;rounded=0;exitX=0.162;exitY=0.009;exitDx=0;exitDy=0;entryX=0.25;entryY=1;entryDx=0;entryDy=0;exitPerimeter=0;" parent="1" source="NexLqIIf15mePnMMeNDO-7" edge="1">
          <mxGeometry width="50" height="50" relative="1" as="geometry">
            <mxPoint x="301" y="440" as="sourcePoint" />
            <mxPoint x="301" y="320" as="targetPoint" />
          </mxGeometry>
        </mxCell>
        <mxCell id="NexLqIIf15mePnMMeNDO-11" value="&lt;div&gt;Keys please!&lt;/div&gt;" style="edgeLabel;html=1;align=center;verticalAlign=middle;resizable=0;points=[];" parent="NexLqIIf15mePnMMeNDO-8" vertex="1" connectable="0">
          <mxGeometry x="-0.25" y="-2" relative="1" as="geometry">
            <mxPoint as="offset" />
          </mxGeometry>
        </mxCell>
        <mxCell id="NexLqIIf15mePnMMeNDO-9" value="" style="endArrow=classic;html=1;rounded=0;exitX=0.5;exitY=1;exitDx=0;exitDy=0;entryX=0.344;entryY=0;entryDx=0;entryDy=0;entryPerimeter=0;" parent="1" target="NexLqIIf15mePnMMeNDO-7" edge="1">
          <mxGeometry width="50" height="50" relative="1" as="geometry">
            <mxPoint x="340" y="320" as="sourcePoint" />
            <mxPoint x="340" y="440" as="targetPoint" />
          </mxGeometry>
        </mxCell>
        <mxCell id="NexLqIIf15mePnMMeNDO-10" value="&lt;div&gt;Return&lt;/div&gt;&lt;div&gt;keys&lt;/div&gt;" style="edgeLabel;html=1;align=center;verticalAlign=middle;resizable=0;points=[];" parent="NexLqIIf15mePnMMeNDO-9" vertex="1" connectable="0">
          <mxGeometry x="-0.1667" y="2" relative="1" as="geometry">
            <mxPoint y="-10" as="offset" />
          </mxGeometry>
        </mxCell>
        <mxCell id="NexLqIIf15mePnMMeNDO-7" value="&lt;b&gt;SSH Client&lt;br&gt;&lt;/b&gt;" style="rounded=1;whiteSpace=wrap;html=1;fillColor=#fff2cc;strokeColor=#d6b656;" parent="1" vertex="1">
          <mxGeometry x="240" y="440" width="320" height="40" as="geometry" />
        </mxCell>
        <mxCell id="UrZxmgG30FoWSUq9icjF-1" value="You" style="shape=umlActor;verticalLabelPosition=bottom;verticalAlign=top;html=1;outlineConnect=0;" parent="1" vertex="1">
          <mxGeometry x="130" y="430" width="30" height="60" as="geometry" />
        </mxCell>
        <mxCell id="UrZxmgG30FoWSUq9icjF-2" value="" style="shape=flexArrow;endArrow=classic;html=1;rounded=0;width=8.965517241379311;endSize=4.055172413793104;endWidth=11.058263971462546;fillColor=#f5f5f5;gradientColor=#b3b3b3;strokeColor=#666666;" parent="1" source="UrZxmgG30FoWSUq9icjF-1" target="NexLqIIf15mePnMMeNDO-7" edge="1">
          <mxGeometry width="50" height="50" relative="1" as="geometry">
            <mxPoint x="400" y="460" as="sourcePoint" />
            <mxPoint x="450" y="410" as="targetPoint" />
          </mxGeometry>
        </mxCell>
        <mxCell id="UrZxmgG30FoWSUq9icjF-3" value="Remote Server" style="rounded=1;whiteSpace=wrap;html=1;fillColor=#f5f5f5;gradientColor=#b3b3b3;strokeColor=#666666;fontStyle=1" parent="1" vertex="1">
          <mxGeometry x="360" y="600" width="200" height="40" as="geometry" />
        </mxCell>
        <mxCell id="UrZxmgG30FoWSUq9icjF-4" value="Key 1?" style="endArrow=classic;html=1;rounded=0;exitX=0.458;exitY=0.975;exitDx=0;exitDy=0;exitPerimeter=0;entryX=0.198;entryY=0.021;entryDx=0;entryDy=0;entryPerimeter=0;" parent="1" source="NexLqIIf15mePnMMeNDO-7" target="UrZxmgG30FoWSUq9icjF-3" edge="1">
          <mxGeometry x="-0.3195" y="1" width="50" height="50" relative="1" as="geometry">
            <mxPoint x="400" y="440" as="sourcePoint" />
            <mxPoint x="450" y="390" as="targetPoint" />
            <mxPoint as="offset" />
          </mxGeometry>
        </mxCell>
        <mxCell id="UrZxmgG30FoWSUq9icjF-5" value="&lt;b&gt;&lt;font color=&quot;#ff3333&quot;&gt;Nope!&lt;/font&gt;&lt;/b&gt;" style="endArrow=classic;html=1;rounded=0;exitX=0.25;exitY=0;exitDx=0;exitDy=0;entryX=0.57;entryY=1.044;entryDx=0;entryDy=0;entryPerimeter=0;" parent="1" source="UrZxmgG30FoWSUq9icjF-3" target="NexLqIIf15mePnMMeNDO-7" edge="1">
          <mxGeometry x="-0.1708" y="-4" width="50" height="50" relative="1" as="geometry">
            <mxPoint x="470" y="490" as="sourcePoint" />
            <mxPoint x="440" y="490" as="targetPoint" />
            <mxPoint as="offset" />
          </mxGeometry>
        </mxCell>
        <mxCell id="UrZxmgG30FoWSUq9icjF-10" value="&lt;div&gt;Key 2?&lt;/div&gt;" style="endArrow=classic;html=1;rounded=0;exitX=0.458;exitY=0.975;exitDx=0;exitDy=0;exitPerimeter=0;entryX=0.479;entryY=-0.008;entryDx=0;entryDy=0;entryPerimeter=0;" parent="1" edge="1">
          <mxGeometry x="-0.3195" y="1" width="50" height="50" relative="1" as="geometry">
            <mxPoint x="452" y="480" as="sourcePoint" />
            <mxPoint x="458" y="601" as="targetPoint" />
            <mxPoint as="offset" />
          </mxGeometry>
        </mxCell>
        <mxCell id="UrZxmgG30FoWSUq9icjF-11" value="&lt;font color=&quot;#ff3333&quot;&gt;&lt;b&gt;Nein&lt;/b&gt;&lt;/font&gt;" style="endArrow=classic;html=1;rounded=0;exitX=0.535;exitY=-0.059;exitDx=0;exitDy=0;exitPerimeter=0;entryX=0.57;entryY=1.044;entryDx=0;entryDy=0;entryPerimeter=0;" parent="1" edge="1">
          <mxGeometry x="-0.1708" y="-4" width="50" height="50" relative="1" as="geometry">
            <mxPoint x="476" y="599" as="sourcePoint" />
            <mxPoint x="487" y="483" as="targetPoint" />
            <mxPoint as="offset" />
          </mxGeometry>
        </mxCell>
        <mxCell id="UrZxmgG30FoWSUq9icjF-13" value="&lt;div&gt;Key 3?&lt;/div&gt;" style="endArrow=classic;html=1;rounded=0;exitX=0.458;exitY=0.975;exitDx=0;exitDy=0;exitPerimeter=0;entryX=0.479;entryY=-0.008;entryDx=0;entryDy=0;entryPerimeter=0;" parent="1" edge="1">
          <mxGeometry x="-0.3195" y="1" width="50" height="50" relative="1" as="geometry">
            <mxPoint x="510" y="480" as="sourcePoint" />
            <mxPoint x="516" y="601" as="targetPoint" />
            <mxPoint as="offset" />
          </mxGeometry>
        </mxCell>
        <mxCell id="UrZxmgG30FoWSUq9icjF-14" value="&lt;div&gt;&lt;font data-darkreader-inline-color=&quot;&quot; style=&quot;--darkreader-inline-color: #ff3d3d;&quot; color=&quot;#ff3333&quot;&gt;&lt;b&gt;Nice&lt;/b&gt;&lt;/font&gt;&lt;/div&gt;&lt;div&gt;&lt;font data-darkreader-inline-color=&quot;&quot; style=&quot;--darkreader-inline-color: #ff3d3d;&quot; color=&quot;#ff3333&quot;&gt;&lt;b&gt;try&lt;br&gt;&lt;/b&gt;&lt;/font&gt;&lt;/div&gt;" style="endArrow=classic;html=1;rounded=0;exitX=0.535;exitY=-0.059;exitDx=0;exitDy=0;exitPerimeter=0;entryX=0.57;entryY=1.044;entryDx=0;entryDy=0;entryPerimeter=0;" parent="1" edge="1">
          <mxGeometry x="-0.1708" y="-4" width="50" height="50" relative="1" as="geometry">
            <mxPoint x="534" y="599" as="sourcePoint" />
            <mxPoint x="545" y="483" as="targetPoint" />
            <mxPoint as="offset" />
          </mxGeometry>
        </mxCell>
        <mxCell id="UrZxmgG30FoWSUq9icjF-15" value="" style="verticalLabelPosition=bottom;verticalAlign=top;html=1;shape=mxgraph.basic.no_symbol;fillColor=#f8cecc;gradientColor=#ea6b66;strokeColor=#b85450;" parent="1" vertex="1">
          <mxGeometry x="530" y="430" width="60" height="60" as="geometry" />
        </mxCell>
      </root>
    </mxGraphModel>
  </diagram>
  <diagram id="NsfJY7IcpBbW99_yCfGr" name="After">
    <mxGraphModel dx="1359" dy="756" grid="1" gridSize="10" guides="1" tooltips="1" connect="1" arrows="1" fold="1" page="1" pageScale="1" pageWidth="827" pageHeight="1169" math="0" shadow="0">
      <root>
        <mxCell id="0" />
        <mxCell id="1" parent="0" />
        <mxCell id="mQsZqz_WJkiT7BYwUJ6t-3" value="&lt;b&gt;1Password SSH Agent&lt;br&gt;&lt;/b&gt;" style="rounded=1;whiteSpace=wrap;html=1;fillColor=#dae8fc;strokeColor=#6c8ebf;" parent="1" vertex="1">
          <mxGeometry x="280" y="240" width="240" height="40" as="geometry" />
        </mxCell>
        <mxCell id="mQsZqz_WJkiT7BYwUJ6t-4" value="" style="shape=image;verticalLabelPosition=bottom;labelBackgroundColor=default;verticalAlign=top;aspect=fixed;imageAspect=0;image=data:image/svg+xml,PHN2ZyB4bWxucz0iaHR0cDovL3d3dy53My5vcmcvMjAwMC9zdmciIHdpZHRoPSIzMiIgdmlld0JveD0iMCAwIDMyIDMyIiBoZWlnaHQ9IjMyIj48ZyB0cmFuc2Zvcm09InRyYW5zbGF0ZSgxIDEpIiBmaWxsPSJub25lIj48cGF0aCBvcGFjaXR5PSIuNTAyMjU1IiBmaWxsPSIjMDAwIiBkPSJtMTUgMGMtOC4yODQ5MzkyNyAwLTE1IDYuNzE1MDYwNzMtMTUgMTUgMCA4LjI4NDkzOTMgNi43MTUwNjA3MyAxNSAxNSAxNSA4LjI4NDkzOTMgMCAxNS02LjcxNTA2MDcgMTUtMTUgMC04LjI4NDkzOTI3LTYuNzE1MDYwNy0xNS0xNS0xNXptMCAxYzcuNzMyNjY2NyAwIDE0IDYuMjY3MzMzMzMgMTQgMTQgMCA3LjczMjY2NjctNi4yNjczMzMzIDE0LTE0IDE0LTcuNzMyNjY2NjcgMC0xNC02LjI2NzMzMzMtMTQtMTQgMC03LjczMjY2NjY3IDYuMjY3MzMzMzMtMTQgMTQtMTR6Ii8+PHBhdGggZmlsbD0iI2ZmZiIgZD0ibTE1IDFjNy43MzI2NjY3IDAgMTQgNi4yNjczMzMzMyAxNCAxNCAwIDcuNzMyNjY2Ny02LjI2NzMzMzMgMTQtMTQgMTQtNy43MzI2NjY2NyAwLTE0LTYuMjY3MzMzMy0xNC0xNCAwLTcuNzMyNjY2NjcgNi4yNjczMzMzMy0xNCAxNC0xNHoiLz48cGF0aCBmaWxsPSIjMGEyZDRkIiBkPSJtMTMgOS41MDE0NjQ2NmMwLS4yNzY5NTEyOC4yMTUwNTc0LS41MDE0NjQ2Ni40OTA0Nzg1LS41MDE0NjQ2NmgzLjAxOTA0M2MuMjcwODgzOCAwIC40OTA0Nzg1LjIxOTU5MzgxLjQ5MDQ3ODUuNDk2MDcyN3Y1LjYwNzg1NDZjMCAuMjczOTczNC0uMTY1MTI5Ny42NDQ2ODk0LS4zNzIzNjMxLjgzMTE5OTVsLS4yNTUyNzM4LjIyOTc0NjRjLS4yMDU2NTA1LjE4NTA4NTQtLjIxNjExMzEuNDkxMzc2OC0uMDIyNjExNi42ODQ4NzgzbC4zMDA0OTcuMzAwNDk3Yy4xOTMxNjI0LjE5MzE2MjQuMzQ5NzUxNS41NzkzOTYzLjM0OTc1MTUuODUxMjE2MnYyLjQ5NzA3MDZjMCAuMjc2OTUxMy0uMjE1MDU3NC41MDE0NjQ3LS40OTA0Nzg1LjUwMTQ2NDdoLTMuMDE5MDQzYy0uMjcwODgzOCAwLS40OTA0Nzg1LS4yMTYyNjY2LS40OTA0Nzg1LS40OTkyNTEydi01LjUwMTQ5NzZjMC0uMjc1NzI4OC4xNTYyNS0uNjU1NTAxMi4zNDk3NTE1LS44NDkwMDI3bC4zMDA0OTctLjMwMDQ5N2MuMTkzMTYyNC0uMTkzMTYyNC4xOTM1MDE1LS41MDYwMDE1IDAtLjY5OTUwM2wtLjMwMDQ5Ny0uMzAwNDk3Yy0uMTkzMTYyNC0uMTkzMTYyNC0uMzQ5NzUxNS0uNTc5Mzk2My0uMzQ5NzUxNS0uODUxMjE2MnoiLz48cGF0aCBmaWxsPSIjMTk4Y2ZmIiBkPSJtMTUgNGM2LjA3NTY2NjcgMCAxMSA0LjkyNDMzMzMzIDExIDExIDAgNi4wNzU2NjY3LTQuOTI0MzMzMyAxMS0xMSAxMS02LjA3NTY2NjY3IDAtMTEtNC45MjQzMzMzLTExLTExIDAtNi4wNzU2NjY2NyA0LjkyNDMzMzMzLTExIDExLTExem0wIDNjLTQuNDE4NjY2NyAwLTggMy41ODEzMzMzLTggOHMzLjU4MTMzMzMgOCA4IDggOC0zLjU4MTMzMzMgOC04LTMuNTgxMzMzMy04LTgtOHoiLz48L2c+PC9zdmc+;" parent="1" vertex="1">
          <mxGeometry x="240" y="100" width="80" height="80" as="geometry" />
        </mxCell>
        <mxCell id="mQsZqz_WJkiT7BYwUJ6t-5" value="" style="shape=flexArrow;endArrow=classic;startArrow=classic;html=1;rounded=0;fillColor=#d5e8d4;strokeColor=#82b366;" parent="1" source="mQsZqz_WJkiT7BYwUJ6t-3" target="mQsZqz_WJkiT7BYwUJ6t-4" edge="1">
          <mxGeometry width="100" height="100" relative="1" as="geometry">
            <mxPoint x="330" y="260" as="sourcePoint" />
            <mxPoint x="430" y="160" as="targetPoint" />
            <Array as="points">
              <mxPoint x="400" y="140" />
            </Array>
          </mxGeometry>
        </mxCell>
        <mxCell id="mQsZqz_WJkiT7BYwUJ6t-6" value="" style="endArrow=classic;html=1;rounded=0;exitX=0.195;exitY=-0.042;exitDx=0;exitDy=0;exitPerimeter=0;entryX=0.468;entryY=1.063;entryDx=0;entryDy=0;entryPerimeter=0;" parent="1" source="mQsZqz_WJkiT7BYwUJ6t-12" target="mQsZqz_WJkiT7BYwUJ6t-14" edge="1">
          <mxGeometry width="50" height="50" relative="1" as="geometry">
            <mxPoint x="301" y="440" as="sourcePoint" />
            <mxPoint x="300" y="280" as="targetPoint" />
          </mxGeometry>
        </mxCell>
        <mxCell id="mQsZqz_WJkiT7BYwUJ6t-7" value="&lt;div&gt;Keys please!&lt;/div&gt;" style="edgeLabel;html=1;align=center;verticalAlign=middle;resizable=0;points=[];" parent="mQsZqz_WJkiT7BYwUJ6t-6" vertex="1" connectable="0">
          <mxGeometry x="-0.25" y="-2" relative="1" as="geometry">
            <mxPoint as="offset" />
          </mxGeometry>
        </mxCell>
        <mxCell id="mQsZqz_WJkiT7BYwUJ6t-8" value="" style="endArrow=classic;html=1;rounded=0;exitX=0.534;exitY=1.063;exitDx=0;exitDy=0;entryX=0.344;entryY=0;entryDx=0;entryDy=0;entryPerimeter=0;exitPerimeter=0;" parent="1" edge="1">
          <mxGeometry width="50" height="50" relative="1" as="geometry">
            <mxPoint x="367.31999999999994" y="402.52" as="sourcePoint" />
            <mxPoint x="381.0799999999999" y="480" as="targetPoint" />
          </mxGeometry>
        </mxCell>
        <mxCell id="mQsZqz_WJkiT7BYwUJ6t-9" value="&lt;div&gt;Return&lt;/div&gt;&lt;div&gt;&lt;b&gt;ordered&lt;/b&gt;&lt;br&gt;&lt;/div&gt;&lt;div&gt;keys&lt;/div&gt;" style="edgeLabel;html=1;align=center;verticalAlign=middle;resizable=0;points=[];" parent="mQsZqz_WJkiT7BYwUJ6t-8" vertex="1" connectable="0">
          <mxGeometry x="-0.1667" y="2" relative="1" as="geometry">
            <mxPoint y="-4" as="offset" />
          </mxGeometry>
        </mxCell>
        <mxCell id="mQsZqz_WJkiT7BYwUJ6t-12" value="&lt;b&gt;SSH Client&lt;br&gt;&lt;/b&gt;" style="rounded=1;whiteSpace=wrap;html=1;fillColor=#fff2cc;strokeColor=#d6b656;" parent="1" vertex="1">
          <mxGeometry x="240" y="480" width="280" height="40" as="geometry" />
        </mxCell>
        <mxCell id="mQsZqz_WJkiT7BYwUJ6t-13" value="&lt;b&gt;1P-SSH&lt;br&gt;&lt;/b&gt;" style="rounded=1;whiteSpace=wrap;html=1;fillColor=#d5e8d4;strokeColor=#82b366;gradientColor=#97d077;" parent="1" vertex="1">
          <mxGeometry x="120" y="480" width="120" height="40" as="geometry" />
        </mxCell>
        <mxCell id="mQsZqz_WJkiT7BYwUJ6t-14" value="1P-SSH Agent Proxy" style="rounded=1;whiteSpace=wrap;html=1;fontStyle=1;fillColor=#d5e8d4;gradientColor=#97d077;strokeColor=#82b366;" parent="1" vertex="1">
          <mxGeometry x="120" y="360" width="400" height="40" as="geometry" />
        </mxCell>
        <mxCell id="mQsZqz_WJkiT7BYwUJ6t-15" value="&lt;div&gt;Connecting&lt;/div&gt;&lt;div&gt;to abcd.xyz&lt;br&gt;&lt;/div&gt;" style="endArrow=classic;html=1;rounded=0;exitX=0.25;exitY=0;exitDx=0;exitDy=0;entryX=0.103;entryY=1.021;entryDx=0;entryDy=0;entryPerimeter=0;" parent="1" edge="1">
          <mxGeometry x="-0.2527" y="4" width="50" height="50" relative="1" as="geometry">
            <mxPoint x="160" y="480" as="sourcePoint" />
            <mxPoint x="169.44000000000005" y="400.84000000000015" as="targetPoint" />
            <mxPoint as="offset" />
          </mxGeometry>
        </mxCell>
        <mxCell id="mQsZqz_WJkiT7BYwUJ6t-16" value="" style="endArrow=classic;html=1;rounded=0;exitX=0.143;exitY=1.083;exitDx=0;exitDy=0;entryX=0.5;entryY=0;entryDx=0;entryDy=0;exitPerimeter=0;" parent="1" edge="1">
          <mxGeometry width="50" height="50" relative="1" as="geometry">
            <mxPoint x="188.63999999999987" y="403.31999999999994" as="sourcePoint" />
            <mxPoint x="200" y="480" as="targetPoint" />
          </mxGeometry>
        </mxCell>
        <mxCell id="mQsZqz_WJkiT7BYwUJ6t-17" value="Ok!" style="edgeLabel;html=1;align=center;verticalAlign=middle;resizable=0;points=[];" parent="mQsZqz_WJkiT7BYwUJ6t-16" vertex="1" connectable="0">
          <mxGeometry x="-0.5584" y="2" relative="1" as="geometry">
            <mxPoint as="offset" />
          </mxGeometry>
        </mxCell>
        <mxCell id="mQsZqz_WJkiT7BYwUJ6t-18" value="" style="endArrow=classic;html=1;rounded=0;exitX=0.162;exitY=0.009;exitDx=0;exitDy=0;exitPerimeter=0;entryX=0.468;entryY=1;entryDx=0;entryDy=0;entryPerimeter=0;" parent="1" edge="1">
          <mxGeometry width="50" height="50" relative="1" as="geometry">
            <mxPoint x="313.5" y="360" as="sourcePoint" />
            <mxPoint x="326.5" y="280" as="targetPoint" />
          </mxGeometry>
        </mxCell>
        <mxCell id="mQsZqz_WJkiT7BYwUJ6t-20" value="" style="endArrow=classic;html=1;rounded=0;exitX=0.534;exitY=1.063;exitDx=0;exitDy=0;entryX=0.344;entryY=0;entryDx=0;entryDy=0;entryPerimeter=0;exitPerimeter=0;" parent="1" edge="1">
          <mxGeometry width="50" height="50" relative="1" as="geometry">
            <mxPoint x="344.9999999999999" y="282.52" as="sourcePoint" />
            <mxPoint x="358.7599999999999" y="360" as="targetPoint" />
          </mxGeometry>
        </mxCell>
        <mxCell id="mQsZqz_WJkiT7BYwUJ6t-22" value="&lt;b&gt;1Password CLI&lt;br&gt;&lt;/b&gt;" style="rounded=1;whiteSpace=wrap;html=1;fillColor=#dae8fc;strokeColor=#6c8ebf;" parent="1" vertex="1">
          <mxGeometry x="120" y="240" width="120" height="40" as="geometry" />
        </mxCell>
        <mxCell id="mQsZqz_WJkiT7BYwUJ6t-23" value="" style="shape=flexArrow;endArrow=classic;startArrow=classic;html=1;rounded=0;fillColor=#d5e8d4;strokeColor=#82b366;exitX=0.5;exitY=0;exitDx=0;exitDy=0;" parent="1" source="mQsZqz_WJkiT7BYwUJ6t-22" target="mQsZqz_WJkiT7BYwUJ6t-4" edge="1">
          <mxGeometry width="100" height="100" relative="1" as="geometry">
            <mxPoint x="140" y="200" as="sourcePoint" />
            <mxPoint x="40" y="100" as="targetPoint" />
            <Array as="points">
              <mxPoint x="180" y="140" />
            </Array>
          </mxGeometry>
        </mxCell>
        <mxCell id="mQsZqz_WJkiT7BYwUJ6t-24" value="" style="shape=flexArrow;endArrow=classic;startArrow=classic;html=1;rounded=0;fillColor=#d5e8d4;strokeColor=#82b366;entryX=0.5;entryY=1;entryDx=0;entryDy=0;exitX=0.149;exitY=-0.104;exitDx=0;exitDy=0;exitPerimeter=0;" parent="1" edge="1">
          <mxGeometry width="100" height="100" relative="1" as="geometry">
            <mxPoint x="179.5999999999999" y="357.84000000000003" as="sourcePoint" />
            <mxPoint x="180" y="282" as="targetPoint" />
          </mxGeometry>
        </mxCell>
        <mxCell id="SGv8dExcUiSHEQasOjJM-1" value="You" style="shape=umlActor;verticalLabelPosition=bottom;verticalAlign=top;html=1;outlineConnect=0;" parent="1" vertex="1">
          <mxGeometry x="10" y="470" width="30" height="60" as="geometry" />
        </mxCell>
        <mxCell id="SGv8dExcUiSHEQasOjJM-2" value="" style="shape=flexArrow;endArrow=classic;html=1;rounded=0;width=8.965517241379311;endSize=4.055172413793104;endWidth=11.058263971462546;fillColor=#f5f5f5;gradientColor=#b3b3b3;strokeColor=#666666;" parent="1" source="SGv8dExcUiSHEQasOjJM-1" edge="1">
          <mxGeometry width="50" height="50" relative="1" as="geometry">
            <mxPoint x="280" y="500" as="sourcePoint" />
            <mxPoint x="120" y="500" as="targetPoint" />
          </mxGeometry>
        </mxCell>
        <mxCell id="3EZoLf2mkFTevywYauUq-1" value="Remote Server" style="rounded=1;whiteSpace=wrap;html=1;fillColor=#f5f5f5;gradientColor=#b3b3b3;strokeColor=#666666;fontStyle=1" parent="1" vertex="1">
          <mxGeometry x="400" y="640" width="120" height="40" as="geometry" />
        </mxCell>
        <mxCell id="2NZp2iziQSMGHR0hf3Aj-1" value="Key 1?" style="endArrow=classic;html=1;rounded=0;exitX=0.534;exitY=1.063;exitDx=0;exitDy=0;entryX=0.25;entryY=0;entryDx=0;entryDy=0;exitPerimeter=0;" parent="1" target="3EZoLf2mkFTevywYauUq-1" edge="1">
          <mxGeometry width="50" height="50" relative="1" as="geometry">
            <mxPoint x="413.9999999999999" y="520" as="sourcePoint" />
            <mxPoint x="427.7599999999999" y="597.48" as="targetPoint" />
          </mxGeometry>
        </mxCell>
        <mxCell id="_7-oxfesFlkGNQnyAowY-1" value="&lt;font color=&quot;#00ff00&quot;&gt;&lt;b&gt;OK!&lt;/b&gt;&lt;/font&gt;" style="endArrow=classic;html=1;rounded=0;exitX=0.25;exitY=0;exitDx=0;exitDy=0;entryX=0.57;entryY=1.044;entryDx=0;entryDy=0;entryPerimeter=0;" parent="1" edge="1">
          <mxGeometry x="-0.1708" y="-4" width="50" height="50" relative="1" as="geometry">
            <mxPoint x="450" y="640" as="sourcePoint" />
            <mxPoint x="462" y="522" as="targetPoint" />
            <mxPoint as="offset" />
          </mxGeometry>
        </mxCell>
        <mxCell id="uKVC6pkVI5qBl7RNazYz-2" value="" style="verticalLabelPosition=bottom;verticalAlign=top;html=1;shape=mxgraph.basic.tick;fillColor=#60a917;strokeColor=#2D7600;fontColor=#ffffff;" parent="1" vertex="1">
          <mxGeometry x="490" y="465" width="59.5" height="70" as="geometry" />
        </mxCell>
      </root>
    </mxGraphModel>
  </diagram>
  <diagram id="XLST2tpM4KH4NTcc6ouM" name="Agent flow">
    <mxGraphModel dx="2186" dy="756" grid="1" gridSize="10" guides="1" tooltips="1" connect="1" arrows="1" fold="1" page="1" pageScale="1" pageWidth="827" pageHeight="1169" math="0" shadow="0">
      <root>
        <mxCell id="0" />
        <mxCell id="1" parent="0" />
        <mxCell id="2Bku4TRpdwIzxE8YyUvQ-1" value="" style="rounded=1;whiteSpace=wrap;html=1;arcSize=6;dashed=1;fillColor=#d5e8d4;strokeColor=#82b366;strokeWidth=3;" vertex="1" parent="1">
          <mxGeometry x="80" y="360" width="480" height="420" as="geometry" />
        </mxCell>
        <mxCell id="2Bku4TRpdwIzxE8YyUvQ-13" value="Request" style="edgeStyle=orthogonalEdgeStyle;rounded=0;orthogonalLoop=1;jettySize=auto;html=1;" edge="1" parent="1" source="CDYgAlZBnJZMRgp0dlt3-1" target="2Bku4TRpdwIzxE8YyUvQ-4">
          <mxGeometry relative="1" as="geometry" />
        </mxCell>
        <mxCell id="CDYgAlZBnJZMRgp0dlt3-1" value="SSH Client" style="rounded=1;whiteSpace=wrap;html=1;fontStyle=1;fillColor=#fff2cc;strokeColor=#d6b656;" vertex="1" parent="1">
          <mxGeometry x="-80" y="410" width="120" height="60" as="geometry" />
        </mxCell>
        <mxCell id="2Bku4TRpdwIzxE8YyUvQ-16" value="Response" style="edgeStyle=orthogonalEdgeStyle;rounded=0;orthogonalLoop=1;jettySize=auto;html=1;entryX=1;entryY=0.5;entryDx=0;entryDy=0;" edge="1" parent="1" source="CDYgAlZBnJZMRgp0dlt3-2" target="2Bku4TRpdwIzxE8YyUvQ-15">
          <mxGeometry x="-0.5882" relative="1" as="geometry">
            <Array as="points">
              <mxPoint x="660" y="705" />
            </Array>
            <mxPoint as="offset" />
          </mxGeometry>
        </mxCell>
        <mxCell id="CDYgAlZBnJZMRgp0dlt3-2" value="&lt;div&gt;1Password&lt;/div&gt;&lt;div&gt;SSH Agent&lt;br&gt;&lt;/div&gt;" style="rounded=1;whiteSpace=wrap;html=1;fontStyle=1;fillColor=#dae8fc;strokeColor=#6c8ebf;" vertex="1" parent="1">
          <mxGeometry x="600" y="410" width="120" height="60" as="geometry" />
        </mxCell>
        <mxCell id="2Bku4TRpdwIzxE8YyUvQ-6" value="No" style="edgeStyle=orthogonalEdgeStyle;rounded=0;orthogonalLoop=1;jettySize=auto;html=1;exitX=1;exitY=0.5;exitDx=0;exitDy=0;" edge="1" parent="1" source="2Bku4TRpdwIzxE8YyUvQ-3" target="2Bku4TRpdwIzxE8YyUvQ-5">
          <mxGeometry relative="1" as="geometry" />
        </mxCell>
        <mxCell id="2Bku4TRpdwIzxE8YyUvQ-12" value="Yes" style="edgeStyle=orthogonalEdgeStyle;rounded=0;orthogonalLoop=1;jettySize=auto;html=1;entryX=1;entryY=0.5;entryDx=0;entryDy=0;" edge="1" parent="1" source="2Bku4TRpdwIzxE8YyUvQ-3" target="2Bku4TRpdwIzxE8YyUvQ-8">
          <mxGeometry x="-0.6" relative="1" as="geometry">
            <Array as="points">
              <mxPoint x="320" y="530" />
            </Array>
            <mxPoint as="offset" />
          </mxGeometry>
        </mxCell>
        <mxCell id="2Bku4TRpdwIzxE8YyUvQ-3" value="&lt;div&gt;Custom&lt;/div&gt;&lt;div&gt;Extension?&lt;br&gt;&lt;/div&gt;" style="rhombus;whiteSpace=wrap;html=1;fillColor=#f5f5f5;gradientColor=#b3b3b3;strokeColor=#666666;" vertex="1" parent="1">
          <mxGeometry x="275" y="395" width="90" height="90" as="geometry" />
        </mxCell>
        <mxCell id="2Bku4TRpdwIzxE8YyUvQ-10" style="edgeStyle=orthogonalEdgeStyle;rounded=0;orthogonalLoop=1;jettySize=auto;html=1;" edge="1" parent="1" source="2Bku4TRpdwIzxE8YyUvQ-4" target="2Bku4TRpdwIzxE8YyUvQ-3">
          <mxGeometry relative="1" as="geometry" />
        </mxCell>
        <mxCell id="2Bku4TRpdwIzxE8YyUvQ-4" value="Decode message" style="rounded=1;whiteSpace=wrap;html=1;fillColor=#dae8fc;gradientColor=#7ea6e0;strokeColor=#6c8ebf;" vertex="1" parent="1">
          <mxGeometry x="120" y="410" width="120" height="60" as="geometry" />
        </mxCell>
        <mxCell id="2Bku4TRpdwIzxE8YyUvQ-14" style="edgeStyle=orthogonalEdgeStyle;rounded=0;orthogonalLoop=1;jettySize=auto;html=1;" edge="1" parent="1" source="2Bku4TRpdwIzxE8YyUvQ-5" target="CDYgAlZBnJZMRgp0dlt3-2">
          <mxGeometry relative="1" as="geometry" />
        </mxCell>
        <mxCell id="2Bku4TRpdwIzxE8YyUvQ-5" value="Encode message" style="rounded=1;whiteSpace=wrap;html=1;fillColor=#dae8fc;gradientColor=#7ea6e0;strokeColor=#6c8ebf;" vertex="1" parent="1">
          <mxGeometry x="400" y="410" width="120" height="60" as="geometry" />
        </mxCell>
        <mxCell id="2Bku4TRpdwIzxE8YyUvQ-9" value="&lt;div&gt;&quot;OK!&quot;&lt;/div&gt;" style="edgeStyle=orthogonalEdgeStyle;rounded=0;orthogonalLoop=1;jettySize=auto;html=1;entryX=0.5;entryY=1;entryDx=0;entryDy=0;" edge="1" parent="1" source="2Bku4TRpdwIzxE8YyUvQ-8" target="CDYgAlZBnJZMRgp0dlt3-1">
          <mxGeometry relative="1" as="geometry" />
        </mxCell>
        <mxCell id="2Bku4TRpdwIzxE8YyUvQ-8" value="Save context" style="rounded=1;whiteSpace=wrap;html=1;fillColor=#dae8fc;gradientColor=#7ea6e0;strokeColor=#6c8ebf;" vertex="1" parent="1">
          <mxGeometry x="120" y="500" width="120" height="60" as="geometry" />
        </mxCell>
        <mxCell id="2Bku4TRpdwIzxE8YyUvQ-18" style="edgeStyle=orthogonalEdgeStyle;rounded=0;orthogonalLoop=1;jettySize=auto;html=1;" edge="1" parent="1" source="2Bku4TRpdwIzxE8YyUvQ-15" target="2Bku4TRpdwIzxE8YyUvQ-17">
          <mxGeometry relative="1" as="geometry" />
        </mxCell>
        <mxCell id="2Bku4TRpdwIzxE8YyUvQ-15" value="Decode message" style="rounded=1;whiteSpace=wrap;html=1;fillColor=#dae8fc;gradientColor=#7ea6e0;strokeColor=#6c8ebf;" vertex="1" parent="1">
          <mxGeometry x="400" y="675" width="120" height="60" as="geometry" />
        </mxCell>
        <mxCell id="2Bku4TRpdwIzxE8YyUvQ-20" value="Yes" style="edgeStyle=orthogonalEdgeStyle;rounded=0;orthogonalLoop=1;jettySize=auto;html=1;entryX=1;entryY=0.5;entryDx=0;entryDy=0;" edge="1" parent="1" source="2Bku4TRpdwIzxE8YyUvQ-17" target="2Bku4TRpdwIzxE8YyUvQ-19">
          <mxGeometry x="-0.52" relative="1" as="geometry">
            <Array as="points">
              <mxPoint x="320" y="615" />
            </Array>
            <mxPoint as="offset" />
          </mxGeometry>
        </mxCell>
        <mxCell id="2Bku4TRpdwIzxE8YyUvQ-23" value="No" style="edgeStyle=orthogonalEdgeStyle;rounded=0;orthogonalLoop=1;jettySize=auto;html=1;exitX=0;exitY=0.5;exitDx=0;exitDy=0;entryX=1;entryY=0.5;entryDx=0;entryDy=0;" edge="1" parent="1" source="2Bku4TRpdwIzxE8YyUvQ-17" target="2Bku4TRpdwIzxE8YyUvQ-21">
          <mxGeometry relative="1" as="geometry" />
        </mxCell>
        <mxCell id="2Bku4TRpdwIzxE8YyUvQ-17" value="&lt;div&gt;Identity list&lt;/div&gt;&lt;div&gt;response?&lt;br&gt;&lt;/div&gt;" style="rhombus;whiteSpace=wrap;html=1;fillColor=#f5f5f5;gradientColor=#b3b3b3;strokeColor=#666666;" vertex="1" parent="1">
          <mxGeometry x="275" y="660" width="90" height="90" as="geometry" />
        </mxCell>
        <mxCell id="2Bku4TRpdwIzxE8YyUvQ-22" style="edgeStyle=orthogonalEdgeStyle;rounded=0;orthogonalLoop=1;jettySize=auto;html=1;entryX=0.5;entryY=0;entryDx=0;entryDy=0;" edge="1" parent="1" source="2Bku4TRpdwIzxE8YyUvQ-19" target="2Bku4TRpdwIzxE8YyUvQ-21">
          <mxGeometry relative="1" as="geometry" />
        </mxCell>
        <mxCell id="2Bku4TRpdwIzxE8YyUvQ-19" value="&lt;div&gt;Reorder identities&lt;/div&gt;&lt;div&gt;using context&lt;br&gt;&lt;/div&gt;" style="rounded=1;whiteSpace=wrap;html=1;fillColor=#dae8fc;gradientColor=#7ea6e0;strokeColor=#6c8ebf;" vertex="1" parent="1">
          <mxGeometry x="120" y="585" width="120" height="60" as="geometry" />
        </mxCell>
        <mxCell id="2Bku4TRpdwIzxE8YyUvQ-24" style="edgeStyle=orthogonalEdgeStyle;rounded=0;orthogonalLoop=1;jettySize=auto;html=1;exitX=0;exitY=0.5;exitDx=0;exitDy=0;entryX=0.5;entryY=1;entryDx=0;entryDy=0;" edge="1" parent="1" source="2Bku4TRpdwIzxE8YyUvQ-21" target="CDYgAlZBnJZMRgp0dlt3-1">
          <mxGeometry relative="1" as="geometry" />
        </mxCell>
        <mxCell id="2Bku4TRpdwIzxE8YyUvQ-21" value="Encode message" style="rounded=1;whiteSpace=wrap;html=1;fillColor=#dae8fc;gradientColor=#7ea6e0;strokeColor=#6c8ebf;" vertex="1" parent="1">
          <mxGeometry x="120" y="675" width="120" height="60" as="geometry" />
        </mxCell>
      </root>
    </mxGraphModel>
  </diagram>
</mxfile>
